<svg width="256" height="256" viewBox="0 0 256 256" fill="none" xmlns="http://www.w3.org/2000/svg">
<rect width="256" height="256" fill="#303030"/>
<path d="M61.4258 149.017C61.4258 138.766 62.9964 129.507 66.1378 121.241C69.2791 112.809 73.7431 105.699 79.5298 99.9127C85.3164 93.9607 92.2604 89.414 100.362 86.2727C108.463 82.966 117.556 81.3127 127.642 81.3127C137.727 81.3127 146.82 82.966 154.922 86.2727C163.188 89.414 170.215 93.9607 176.002 99.9127C181.788 105.699 186.252 112.809 189.394 121.241C192.535 129.507 194.106 138.766 194.106 149.017C194.106 159.267 192.535 168.526 189.394 176.793C186.252 185.059 181.788 192.169 176.002 198.121C170.215 203.907 163.188 208.454 154.922 211.761C146.82 214.902 137.727 216.473 127.642 216.473C117.556 216.473 108.463 214.902 100.362 211.761C92.2604 208.454 85.3164 203.907 79.5298 198.121C73.7431 192.169 69.2791 185.059 66.1378 176.793C62.9964 168.526 61.4258 159.267 61.4258 149.017ZM96.6418 149.017C96.6418 154.142 97.1378 159.185 98.1298 164.145C99.1218 168.939 100.775 173.321 103.09 177.289C105.57 181.091 108.794 184.15 112.762 186.465C116.73 188.779 121.69 189.937 127.642 189.937C133.594 189.937 138.554 188.779 142.522 186.465C146.655 184.15 149.879 181.091 152.194 177.289C154.674 173.321 156.41 168.939 157.402 164.145C158.394 159.185 158.89 154.142 158.89 149.017C158.89 143.891 158.394 138.849 157.402 133.889C156.41 128.929 154.674 124.547 152.194 120.745C149.879 116.942 146.655 113.883 142.522 111.569C138.554 109.089 133.594 107.849 127.642 107.849C121.69 107.849 116.73 109.089 112.762 111.569C108.794 113.883 105.57 116.942 103.09 120.745C100.775 124.547 99.1218 128.929 98.1298 133.889C97.1378 138.849 96.6418 143.891 96.6418 149.017ZM84.2418 40.8887H171.786V59.4887H84.2418V40.8887Z" fill="#D4D4D4"/>
</svg>
